<?xml version="1.0" standalone="yes"?>
<svg xmlns="http://www.w3.org/2000/svg" width="575" height="196">
<path style="fill:#f5f9f8; stroke:none;" d="M0 0L0 196L575 196L575 0L0 0z"/>
<path style="fill:#636568; stroke:none;" d="M3 7L4 7C11.9962 0.942093 34.0322 5 44 5L153 5L571 5C563.531 0.696854 545.794 4 537 4L451 4L133 4L34 4C28.2348 4 4.26923 1.07695 3 7z"/>
<path style="fill:#111617; stroke:none;" d="M571 5L322 5L87 5L27 5C21.8879 5 8.80678 2.64278 4.75617 6.02779C1.27449 8.93736 3.00671 22.6519 3 27L3 90L3 165C3 169.947 0.597072 186.743 4.60725 189.972C10.3175 194.57 30.7192 191 38 191L130 191L455 191L539 191C545.786 191 564.012 194.237 569.397 189.972C572.216 187.739 571 181.151 571 178L571 144L571 5z"/>
<path style="fill:#4aa04d; stroke:none;" d="M571 5L571 183L572 183L572 58L572 22L571 5M2.33333 7.66667L2.66667 8.33333L2.33333 7.66667z"/>
<path style="fill:#636568; stroke:none;" d="M9 186L10 186L9 141L9 54L9 23L10.6034 10.6034L21 9L46 9L150 9L565 9L565 185L11 185L11 186L566 186L566 55L566 22L565.168 9.60339L551 8L513 8L357 8L100 8L34 8L9.6034 9.02779L8 20L8 51L8 142L9 186z"/>
<path style="fill:#4aa04d; stroke:none;" d="M10 9L10 10L565 10C552.593 4.79366 530.515 9 517 9L403 9L10 9z"/>
<path style="fill:#636568; stroke:none;" d="M3 10L3 13L4 13L3 10z"/>
<path style="fill:#f5f9f8; stroke:none;" d="M9 10L9 185L565 185L565 10L9 10z"/>
<path style="fill:#636568; stroke:none;" d="M3 16L3 19L4 19L3 16z"/>
<path style="fill:#4aa04d; stroke:none;" d="M217 26L215 29L217 26z"/>
<path style="fill:#636568; stroke:none;" d="M218 26L194.91 50L182 59L182 60C198.131 62.279 204.998 27.711 221 30L218 26z"/>
<path style="fill:#4aa04d; stroke:none;" d="M219 26L220 27L219 26M220 27L221 28L220 27z"/>
<path style="fill:#111617; stroke:none;" d="M170 45C160.918 49.4352 154.14 62.9411 148.255 71.0039C137.434 85.8268 126.139 100.317 115.127 115C109.686 122.254 102.54 129.626 99 138L131 111L127 123L128 123C144.249 101.565 159.493 75.0698 167 49L170 49L179.496 68L175 78L188 68C185.51 81.638 169.416 89.4235 174 105L202 63L205 79L207 79C206.457 66.3569 205.694 59.0766 213 48L213 47C210.359 42.6249 215.207 37.2845 217 33C222.997 37.8266 225.861 46.228 229.247 53C238.242 70.9904 246.055 94.3287 265 104C261.265 96.7608 255.133 90.8491 250.699 84C243.265 72.5161 236.979 60.0248 230.46 48C228.142 43.7252 223.725 30.7961 218.787 29.3457C214.52 28.0923 208.569 36.3387 206.09 39C201.943 43.4515 190.818 60.1723 184.171 59.3835C179.32 58.8079 172.6 48.694 170 45z"/>
<path style="fill:#4aa04d; stroke:none;" d="M213 30L214 31L213 30M221 30L223 32L221 30z"/>
<path style="fill:#636568; stroke:none;" d="M221 31L222 32L221 31z"/>
<path style="fill:#4aa04d; stroke:none;" d="M211 32L212 33L211 32z"/>
<path style="fill:#636568; stroke:none;" d="M222.333 32.6667L222.667 33.3333L222.333 32.6667M217 33L215 37L216 37L217 34L219 34L220 37L217 33z"/>
<path style="fill:#4aa04d; stroke:none;" d="M217.667 34.3333L218.333 34.6667L217.667 34.3333z"/>
<path style="fill:#636568; stroke:none;" d="M223 34L225 37L223 34z"/>
<path style="fill:#4aa04d; stroke:none;" d="M219 35L220 36L219 35M224 35L225 36L224 35M216 36L217 37L216 36M215 37L216 38L215 37M220 37L221 38L220 37M225 37L226 38L225 37z"/>
<path style="fill:#636568; stroke:none;" d="M214.333 38.6667L214.667 39.3333L214.333 38.6667M221 38L228 53L229 53L221 38M225 38L227 41L225 38z"/>
<path style="fill:#4aa04d; stroke:none;" d="M221 39L222 40L221 39z"/>
<path style="fill:#636568; stroke:none;" d="M213 40L214 41L213 40M212 41L213 47L213 48L209 55L210 55L215 45L212 44L212 41z"/>
<path style="fill:#4aa04d; stroke:none;" d="M222 41L223 42L222 41z"/>
<path style="fill:#636568; stroke:none;" d="M227 41L230 48L231 48L227 41z"/>
<path style="fill:#4aa04d; stroke:none;" d="M228 42L229 43L228 42M212 43L213 44L212 43M223 43L224 44L223 43M167 44L165 47L167 44z"/>
<path style="fill:#636568; stroke:none;" d="M168.667 44.3333L169.333 44.6667L168.667 44.3333z"/>
<path style="fill:#4aa04d; stroke:none;" d="M214 44L216 46L216 44L214 44M229 44L230 45L229 44z"/>
<path style="fill:#636568; stroke:none;" d="M167 45L168 46L167 45z"/>
<path style="fill:#4aa04d; stroke:none;" d="M170 45L179 54L170 45M224 45L225 46L224 45M356.667 45.3333L357.333 45.6667L356.667 45.3333z"/>
<path style="fill:#636568; stroke:none;" d="M351 47L351 48L356 56L357 56L353 47L360 46L361 83L362 96L362 97L366 97C357.537 81.1162 365.086 62.1642 361 45L351 47z"/>
<path style="fill:#4aa04d; stroke:none;" d="M361.333 45.6667L361.667 46.3333L361.333 45.6667M406 45L406 46L410 46L406 45z"/>
<path style="fill:#636568; stroke:none;" d="M404 47L404 48C412.713 55.8503 409.777 87.8152 404 97L418 97L414 93L415 96L407 96C411.328 85.7855 412.549 56.105 406 47L412 46L413 92L414 58L412.972 46.6427L404 47z"/>
<path style="fill:#4aa04d; stroke:none;" d="M413 45L414 46L413 45z"/>
<path style="fill:#636568; stroke:none;" d="M166 46L167 47L166 46M170 46L171 47L170 46z"/>
<path style="fill:#4aa04d; stroke:none;" d="M230 46L231 47L230 46M351 46L352 47L351 46z"/>
<path style="fill:#111617; stroke:none;" d="M353 47C355.897 52.1005 359.891 63.7648 354 68C357.522 77.591 357.64 85.7807 353 95L356 94C358.262 97.1256 360.398 96.8233 364 96C355.85 81.1845 364.668 61.7926 360 46L353 47z"/>
<path style="fill:#4aa04d; stroke:none;" d="M404 46L405 47L404 46z"/>
<path style="fill:#111617; stroke:none;" d="M406 47C412.382 58.6018 410.885 83.5501 407 96L415 96L412 46L406 47z"/>
<path style="fill:#636568; stroke:none;" d="M165 47L164 49L166 49L165 47M171 47L172 48L171 47z"/>
<path style="fill:#4aa04d; stroke:none;" d="M197 47L198 48L197 47M214 47L215 48L214 47M225 47L226 48L225 47M350 47L351 48L350 47M414 47L414 93L415 93C415 79.9965 419.01 58.9389 414 47z"/>
<path style="fill:#636568; stroke:none;" d="M172 48L173 49L172 48z"/>
<path style="fill:#4aa04d; stroke:none;" d="M196 48L197 49L196 48M213 48L214 49L213 48M231 48L233 50L231 48M351 48L352 49L351 48M404 48L405 49L404 48M163 49L162 51L163 49z"/>
<path style="fill:#636568; stroke:none;" d="M167 49L166 53L167 53L170 50L167 49M173 49L174 50L173 49z"/>
<path style="fill:#4aa04d; stroke:none;" d="M195 49L196 50L195 49M226 49L227 50L226 49z"/>
<path style="fill:#636568; stroke:none;" d="M231 49L233 52L231 49z"/>
<path style="fill:#4aa04d; stroke:none;" d="M406 49L407 50L406 49z"/>
<path style="fill:#636568; stroke:none;" d="M163 50L164 51L163 50z"/>
<path style="fill:#4aa04d; stroke:none;" d="M169 50L170 51L169 50z"/>
<path style="fill:#636568; stroke:none;" d="M174 50L175 51L174 50z"/>
<path style="fill:#4aa04d; stroke:none;" d="M194 50L195 51L194 50M212 50L213 51L212 50M407 50L408 51L407 50z"/>
<path style="fill:#636568; stroke:none;" d="M162 51L163 52L162 51z"/>
<path style="fill:#4aa04d; stroke:none;" d="M167 51L168 52L167 51z"/>
<path style="fill:#636568; stroke:none;" d="M170 51L172 53L170 51M175 51L176 52L175 51z"/>
<path style="fill:#4aa04d; stroke:none;" d="M193 51L194 52L193 51M211 51L212 52L211 51M227 51L228 52L227 51M161 52L159 55L161 52M170 52L171 53L170 52z"/>
<path style="fill:#636568; stroke:none;" d="M176 52L177 53L176 52z"/>
<path style="fill:#4aa04d; stroke:none;" d="M192 52L193 53L192 52z"/>
<path style="fill:#636568; stroke:none;" d="M233 52L236 59L237 59L233 52M161 53L162 54L161 53M165 53L162 61L163 61L165 53z"/>
<path style="fill:#4aa04d; stroke:none;" d="M171 53L172 54L171 53z"/>
<path style="fill:#636568; stroke:none;" d="M177 53L178 54L177 53z"/>
<path style="fill:#4aa04d; stroke:none;" d="M191 53L192 54L191 53M210 53L211 54L210 53z"/>
<path style="fill:#636568; stroke:none;" d="M229 53L232 60L233 60L229 53z"/>
<path style="fill:#4aa04d; stroke:none;" d="M234 53L235 54L234 53M355 53L355 66L356 66L355 53z"/>
<path style="fill:#636568; stroke:none;" d="M160 54L161 55L160 54M172 54L180 68L181 68L172 54M178 54L178 56L180 56L178 54z"/>
<path style="fill:#4aa04d; stroke:none;" d="M190 54L191 55L190 54z"/>
<path style="fill:#636568; stroke:none;" d="M159 55L156 60L159 55z"/>
<path style="fill:#4aa04d; stroke:none;" d="M172 55L173 56L172 55M189 55L190 56L189 55z"/>
<path style="fill:#636568; stroke:none;" d="M208.333 55.6667L208.667 56.3333L208.333 55.6667z"/>
<path style="fill:#4aa04d; stroke:none;" d="M229 55L230 56L229 55M235 55L236 56L235 55M158 56L159 57L158 56M165 56L166 57L165 56z"/>
<path style="fill:#636568; stroke:none;" d="M180 56L181 57L180 56z"/>
<path style="fill:#4aa04d; stroke:none;" d="M188 56L189 57L188 56M157 57L158 58L157 57M164 57L165 58L164 57M173 57L174 58L173 57z"/>
<path style="fill:#636568; stroke:none;" d="M181 57L182 58L181 57z"/>
<path style="fill:#4aa04d; stroke:none;" d="M187 57L188 58L187 57z"/>
<path style="fill:#636568; stroke:none;" d="M207 57L206 74L207 74L207 57z"/>
<path style="fill:#4aa04d; stroke:none;" d="M230 57L231 58L230 57M156 58L157 59L156 58M182 58L183 59L182 58M186 58L187 59L186 58M207 58L208 59L207 58z"/>
<path style="fill:#636568; stroke:none;" d="M356 58L356 63L357 63L356 58z"/>
<path style="fill:#4aa04d; stroke:none;" d="M231 59L232 60L231 59M237 59L239 61L237 59z"/>
<path style="fill:#636568; stroke:none;" d="M155 60L152 65L155 60z"/>
<path style="fill:#4aa04d; stroke:none;" d="M163 60L164 61L163 60M175 60L176 61L175 60M232 60L233 61L232 60z"/>
<path style="fill:#636568; stroke:none;" d="M237 60L240 66L241 66L237 60z"/>
<path style="fill:#4aa04d; stroke:none;" d="M154 61L155 62L154 61M162 61L163 62L162 61z"/>
<path style="fill:#636568; stroke:none;" d="M233 61L234 65L235 65L233 61z"/>
<path style="fill:#4aa04d; stroke:none;" d="M153 62L154 63L153 62z"/>
<path style="fill:#636568; stroke:none;" d="M161 62L151 86L152 86L161 62z"/>
<path style="fill:#4aa04d; stroke:none;" d="M176 62L177 63L176 62M239 62L240 63L239 62M177 63L178 64L177 63z"/>
<path style="fill:#636568; stroke:none;" d="M201 63L198 67L202 65L204 78L205 78L201 63z"/>
<path style="fill:#4aa04d; stroke:none;" d="M233 63L234 64L233 63M161 64L162 65L161 64M240 64L241 65L240 64M312.667 64.3333L313.333 64.6667L312.667 64.3333M345.667 64.3333L346.333 64.6667L345.667 64.3333M151 65L150 67L151 65M178 65L179 66L178 65M200 65L201 66L200 65z"/>
<path style="fill:#636568; stroke:none;" d="M235 65L238 72L239 72L235 65z"/>
<path style="fill:#4aa04d; stroke:none;" d="M265 65L266 66L265 65z"/>
<path style="fill:#636568; stroke:none;" d="M266 73C268.958 68.0203 272.318 65.4635 277 70L278 70L279 66C274.861 64.7767 269.192 64.136 265.11 66.0093C260.409 68.166 261.944 71.7596 266 73z"/>
<path style="fill:#4aa04d; stroke:none;" d="M292 65L295 70L294 65L292 65z"/>
<path style="fill:#636568; stroke:none;" d="M293 66C296.97 76.1543 297.994 87.4702 292 97L306 97C299.737 87.0438 299.013 60.9729 317 70L313 67L313 66C327.053 68.8376 319.788 86.0608 324 96L316 96L318 71L317 71C317 80.4029 318.156 88.8031 313 97L328 97C320.195 88.1497 326.3 79.7532 322.258 70.0941C319.22 62.8367 299.208 64.1867 293 66z"/>
<path style="fill:#4aa04d; stroke:none;" d="M301 65L302 66L301 65M306 65L307 66L306 65M318 65L319 66L318 65M340 65L339 67L340 65z"/>
<path style="fill:#636568; stroke:none;" d="M340 66L340 67L344 66L342 69C348.51 66.2467 353.492 67.5508 355 75L356 75L354 68L357 65L340 66z"/>
<path style="fill:#4aa04d; stroke:none;" d="M351 65L353 67L353 65L351 65z"/>
<path style="fill:#636568; stroke:none;" d="M379 66C377.492 75.8568 372.094 88.1775 384 94L384 93C382.382 91.7294 381.101 90.7068 379.97 88.9414C370.922 74.8144 389.343 77 398 77L398 76L393 76L393 71L392 71L392 75L378 75L384 65L379 66z"/>
<path style="fill:#4aa04d; stroke:none;" d="M384 65L384 67L387 67L387 65L384 65z"/>
<path style="fill:#636568; stroke:none;" d="M387 65L392 70L390 66L392 67L387 65z"/>
<path style="fill:#4aa04d; stroke:none;" d="M391 65L392 66L391 65M427 65L428 66L427 65z"/>
<path style="fill:#636568; stroke:none;" d="M426 66L426 67L431 66L425 72L425 67L424 67C422.575 76.7436 430.971 68.6934 434 66L426 66z"/>
<path style="fill:#4aa04d; stroke:none;" d="M433 67L436 67L435 65L433 67z"/>
<path style="fill:#636568; stroke:none;" d="M435 65L435 66L439 68L438 66L441 67L435 65z"/>
<path style="fill:#4aa04d; stroke:none;" d="M440 65L441 66L440 65z"/>
<path style="fill:#636568; stroke:none;" d="M151 66L152 67L151 66z"/>
<path style="fill:#4aa04d; stroke:none;" d="M160 66L161 67L160 66M179 66L178 70L179 70L179 66M199 66L200 67L199 66M241 66L242 67L241 66M263 66L264 67L263 66z"/>
<path style="fill:#111617; stroke:none;" d="M262 71L263 72L269 66L262 71z"/>
<path style="fill:#4aa04d; stroke:none;" d="M271.667 66.3333L272.333 66.6667L271.667 66.3333M279 66L280 67L279 66z"/>
<path style="fill:#111617; stroke:none;" d="M294 67C298.713 75.5672 297.845 86.8816 295 96L303 96C300.561 88.1819 305.506 63.9616 294 67z"/>
<path style="fill:#4aa04d; stroke:none;" d="M305 66L306 67L305 66z"/>
<path style="fill:#111617; stroke:none;" d="M313 66L313 67C320.934 73.2894 318.704 87.3352 316 96L324 96C320.953 86.2348 326.495 67.5041 313 66z"/>
<path style="fill:#4aa04d; stroke:none;" d="M319 66L320 67L319 66z"/>
<path style="fill:#111617; stroke:none;" d="M345 97L345 96C333.092 87.3565 337.073 76.181 344 66C326.663 69.4984 329.397 93.249 345 97z"/>
<path style="fill:#4aa04d; stroke:none;" d="M378 66L379 67L378 66z"/>
<path style="fill:#111617; stroke:none;" d="M390 66L393 76L398 76L390 66z"/>
<path style="fill:#4aa04d; stroke:none;" d="M392 66L393 67L392 66M425 66L426 67L425 66z"/>
<path style="fill:#111617; stroke:none;" d="M425 72L431 66C426.921 66.6644 424.83 67.6264 425 72M438 66C440.022 70.5621 441.427 73.3551 439 78L439 79C441.632 83.9326 440.86 87.8953 439 93L450 97L450 96C439.69 88.145 451.5 70.6444 438 66z"/>
<path style="fill:#4aa04d; stroke:none;" d="M441 66L442 67L441 66z"/>
<path style="fill:#636568; stroke:none;" d="M150 67L151 68L150 67z"/>
<path style="fill:#4aa04d; stroke:none;" d="M198 67L199 68L198 67M235 67L236 68L235 67z"/>
<path style="fill:#636568; stroke:none;" d="M241 67L244 73L245 73L241 67z"/>
<path style="fill:#4aa04d; stroke:none;" d="M269 67L270 68L269 67M275 67L276 68L275 67z"/>
<path style="fill:#111617; stroke:none;" d="M277 67C279.195 75.3842 279.352 84.6287 277 93L287 97C281.069 88.8554 287.421 70.0232 277 67z"/>
<path style="fill:#636568; stroke:none;" d="M280 67C284.374 74.9512 283 84.1565 283 93L284 93C284 85.7589 286.906 71.3583 280 67z"/>
<path style="fill:#4aa04d; stroke:none;" d="M303 67L304 68L303 67M307 67L308 68L307 67M312 67L313 68L312 67M337 67L336 69L337 67z"/>
<path style="fill:#636568; stroke:none;" d="M338 67L339 68L338 67z"/>
<path style="fill:#4aa04d; stroke:none;" d="M344 67L343 69L344 67z"/>
<path style="fill:#f5f9f8; stroke:none;" d="M345.04 67.8627C333.837 72.4206 337.406 100.175 349.981 94.7269C358.718 90.9413 357.488 62.7986 345.04 67.8627z"/>
<path style="fill:#4aa04d; stroke:none;" d="M351 67L352 68L351 67M376 67L373 71L376 67z"/>
<path style="fill:#636568; stroke:none;" d="M377 67C371.093 73.2488 368.987 79.54 371 88L372 88L377 67z"/>
<path style="fill:#111617; stroke:none;" d="M390 97L390 96C374.655 91.7588 375.151 79.3998 380 67C361.884 75.633 373.52 96.8617 390 97z"/>
<path style="fill:#4aa04d; stroke:none;" d="M381 67L382 68L381 67z"/>
<path style="fill:#f5f9f8; stroke:none;" d="M378 75L384.005 74.9992C399.459 74.8906 381.276 58.8193 378 75z"/>
<path style="fill:#636568; stroke:none;" d="M393 67L397 74L398 74L393 67z"/>
<path style="fill:#4aa04d; stroke:none;" d="M394 67L395 68L394 67M431 67L432 68L431 67M437 67L438 68L437 67z"/>
<path style="fill:#636568; stroke:none;" d="M442 67L446 94L447 94C444.988 85.5491 449.211 73.0064 442 67z"/>
<path style="fill:#4aa04d; stroke:none;" d="M443 67L444 68L443 67z"/>
<path style="fill:#636568; stroke:none;" d="M149 68L145 75L149 68M182 73L187 73L188 68L182 73M197 68L198 69L197 68z"/>
<path style="fill:#4aa04d; stroke:none;" d="M202.333 68.6667L202.667 69.3333L202.333 68.6667M236 68L237 69L236 68M261 68L262 69L261 68M268 68L269 69L268 68M282 68L283 69L282 68M306 68L307 69L306 68M314 68L315 69L314 68z"/>
<path style="fill:#636568; stroke:none;" d="M337 68L338 69L337 68z"/>
<path style="fill:#4aa04d; stroke:none;" d="M352 68L353 69L352 68M395 68L396 69L395 68M438 68L439 69L438 68M444 68L445 69L444 68M148 69L149 70L148 69M159 69L160 70L159 69z"/>
<path style="fill:#636568; stroke:none;" d="M179 69L180 70L179 69M196 69L192 75L196 69z"/>
<path style="fill:#4aa04d; stroke:none;" d="M243 69L244 70L243 69M283 69L284 70L283 69M315 69L316 70L315 69M322 69L323 70L322 69z"/>
<path style="fill:#636568; stroke:none;" d="M335 69C331.43 75.8219 330.186 81.3829 332 89L333 89C331.965 80.8064 332.727 76.1715 337 69L335 69z"/>
<path style="fill:#4aa04d; stroke:none;" d="M341 69L342 70L341 69M353 69L354 70L353 69M390 69L391 70L390 69M396 69L397 70L396 69M430 69L431 70L430 69z"/>
<path style="fill:#636568; stroke:none;" d="M439 69L439 78L440 78L439 69z"/>
<path style="fill:#4aa04d; stroke:none;" d="M445 69L446 70L445 69M147 70L148 71L147 70M158 70L159 71L158 70z"/>
<path style="fill:#636568; stroke:none;" d="M178 70L177 73L178 70z"/>
<path style="fill:#4aa04d; stroke:none;" d="M186 70L187 71L186 70M196 70L197 71L196 70M267 70L268 71L267 70M277 70L277 73L278 73L277 70M303 70L304 71L303 70M316 70L316 73L317 73L316 70M334 70L335 71L334 70z"/>
<path style="fill:#636568; stroke:none;" d="M340 70L339 73L340 73L340 70z"/>
<path style="fill:#4aa04d; stroke:none;" d="M391 70L392 71L391 70M429 70L430 71L429 70M177 71L178 72L177 71M184 71L185 72L184 71M195 71L196 72L195 71M237 71L238 72L237 71M244 71L245 72L244 71M261 71L262 72L261 71M266 71L267 72L266 71z"/>
<path style="fill:#636568; stroke:none;" d="M278 71L278 76L279 76L278 71z"/>
<path style="fill:#4aa04d; stroke:none;" d="M333 71L334 72L333 71M340 71L341 72L340 71M354 71L355 72L354 71M378 71L379 72L378 71M439 71L439 77L440 77L439 71M183 72L184 73L183 72M238 72L239 73L238 72M262 72L263 73L262 72M424 72L425 73L424 72M428 72L429 73L428 72M145 73L146 74L145 73M157 73L158 74L157 73z"/>
<path style="fill:#636568; stroke:none;" d="M176.333 73.6667L176.667 74.3333L176.333 73.6667M181 73L182 74L181 73z"/>
<path style="fill:#4aa04d; stroke:none;" d="M185 73L184 75L185 73M194 73L195 74L194 73M203 73L204 74L203 73M207 73L207 76L208 76L207 73z"/>
<path style="fill:#636568; stroke:none;" d="M239 73L245 86L246 86L239 73z"/>
<path style="fill:#4aa04d; stroke:none;" d="M245 73L246 74L245 73M302 73L302 79L303 79L302 73M332 73L333 74L332 73z"/>
<path style="fill:#636568; stroke:none;" d="M338 73L338 89L339 89L338 73z"/>
<path style="fill:#4aa04d; stroke:none;" d="M371 73L372 74L371 73M398 73L398 77L399 77L398 73M446 73L446 93L447 93L446 73z"/>
<path style="fill:#636568; stroke:none;" d="M180 74L181 75L180 74M185 74L186 75L185 74z"/>
<path style="fill:#4aa04d; stroke:none;" d="M193 74L194 75L193 74z"/>
<path style="fill:#636568; stroke:none;" d="M245 74L247 77L245 74z"/>
<path style="fill:#4aa04d; stroke:none;" d="M391 74L392 75L391 74z"/>
<path style="fill:#636568; stroke:none;" d="M144 75L145 76L144 75z"/>
<path style="fill:#4aa04d; stroke:none;" d="M156 75L157 76L156 75z"/>
<path style="fill:#636568; stroke:none;" d="M175 75L174 79L177 78L177 77L175 78L175 75M178 75L178 77L180 75L178 75M184 75L185 76L184 75z"/>
<path style="fill:#4aa04d; stroke:none;" d="M192 75L193 76L192 75M239 75L240 76L239 75M331 75L332 76L331 75M355 75L355 86L356 86L355 75z"/>
<path style="fill:#636568; stroke:none;" d="M143 76L139 83L143 76M183 76L182 79L183 76M191 76L190 78L191 76M207 76L207 90L208 90L207 76z"/>
<path style="fill:#4aa04d; stroke:none;" d="M240 76L241 77L240 76M247 76L249 79L247 76M277 76L276 78L277 76M338.333 76.6667L338.667 77.3333L338.333 76.6667z"/>
<path style="fill:#636568; stroke:none;" d="M356 76L356 86L357 86L356 76z"/>
<path style="fill:#4aa04d; stroke:none;" d="M370.333 76.6667L370.667 77.3333L370.333 76.6667M142 77L143 78L142 77M177 77L178 78L177 77M182 77L183 78L182 77M191 77L192 78L191 77z"/>
<path style="fill:#636568; stroke:none;" d="M277 77C270.906 82.9241 257.653 82.2066 261 94L262 94C259.825 83.4232 270.268 83.8577 277 80L278 88L279 88L277 77z"/>
<path style="fill:#4aa04d; stroke:none;" d="M323 77L323 87L324 87L323 77M378 77L379 78L378 77M438 77L434 80L434 81L438 77M141 78L142 79L141 78M155 78L156 79L155 78M172 81L176 80L172 81M176 78L177 79L176 78M190 78L191 79L190 78M204 78L204 81L205 81L204 78z"/>
<path style="fill:#636568; stroke:none;" d="M247 78L248 79L247 78z"/>
<path style="fill:#4aa04d; stroke:none;" d="M377 78L377 84L378 84L377 78M154 79L155 80L154 79M181 79L180 81L181 79z"/>
<path style="fill:#636568; stroke:none;" d="M188 79L188 81L190 79L188 79z"/>
<path style="fill:#4aa04d; stroke:none;" d="M208 79L207 92L208 92L208 79z"/>
<path style="fill:#636568; stroke:none;" d="M248 79L250 84L251 84L248 79z"/>
<path style="fill:#4aa04d; stroke:none;" d="M273 79L273 80L276 80L273 79z"/>
<path style="fill:#636568; stroke:none;" d="M423 87L440 81L439 92L440 92L440 79C433.644 80.4571 427.19 81.6984 423 87z"/>
<path style="fill:#4aa04d; stroke:none;" d="M140 80L141 81L140 80z"/>
<path style="fill:#636568; stroke:none;" d="M181 80L182 81L181 80z"/>
<path style="fill:#4aa04d; stroke:none;" d="M242 80L243 81L242 80M249 80L250 81L249 80M276 80L278 82L276 80M139 81L140 82L139 81z"/>
<path style="fill:#636568; stroke:none;" d="M180 81L181 82L180 81M187 81L186 83L187 81z"/>
<path style="fill:#4aa04d; stroke:none;" d="M267.667 81.3333L268.333 81.6667L267.667 81.3333M274 81L273 83L274 81z"/>
<path style="fill:#f5f9f8; stroke:none;" d="M278 82L277 81C272.729 82.577 265.934 86.1028 267.988 91.8557C269.608 96.3947 274.768 94.4007 276.262 90.9414C277.415 88.2701 277.468 84.854 278 82z"/>
<path style="fill:#4aa04d; stroke:none;" d="M302 81L302 93L303 93L302 81M429.667 81.3333L430.333 81.6667L429.667 81.3333M436 81L435 83L436 81z"/>
<path style="fill:#f5f9f8; stroke:none;" d="M440 82C438.002 81.8678 436.882 81.7947 435.015 82.7577C422.724 89.0978 435.881 100.168 438.686 89.9807C439.392 87.4172 439.377 84.6141 440 82z"/>
<path style="fill:#4aa04d; stroke:none;" d="M439 81L440 82L439 81M153 82L154 83L153 82M179 82L178 84L179 82M187 82L188 83L187 82M243.333 82.6667L243.667 83.3333L243.333 82.6667M250 82L251 83L250 82M265 82L266 83L265 82z"/>
<path style="fill:#111617; stroke:none;" d="M270 97L270 96C264.626 91.2532 266.754 86.82 272 83C261.339 79.8578 256.72 96.1062 270 97z"/>
<path style="fill:#4aa04d; stroke:none;" d="M427 82L428 83L427 82z"/>
<path style="fill:#111617; stroke:none;" d="M432 97L432 96C426.626 91.2532 428.754 86.82 434 83C423.283 79.8413 419.108 95.5631 432 97z"/>
<path style="fill:#636568; stroke:none;" d="M138 83L139 84L138 83M179 83L180 84L179 83z"/>
<path style="fill:#4aa04d; stroke:none;" d="M186 83L187 84L186 83M205.333 83.6667L205.667 84.3333L205.333 83.6667M263 83L264 84L263 83z"/>
<path style="fill:#636568; stroke:none;" d="M270 83L271 84L270 83z"/>
<path style="fill:#4aa04d; stroke:none;" d="M271 83L272 84L271 83M425 83L426 84L425 83z"/>
<path style="fill:#636568; stroke:none;" d="M432 83L433 84L432 83z"/>
<path style="fill:#4aa04d; stroke:none;" d="M433 83L434 84L433 83M439 83L439 89L440 89L439 83z"/>
<path style="fill:#636568; stroke:none;" d="M137 84L133 91L137 84z"/>
<path style="fill:#4aa04d; stroke:none;" d="M152 84L153 85L152 84z"/>
<path style="fill:#636568; stroke:none;" d="M178 84L179 85L178 84M185 84L186 85L185 84z"/>
<path style="fill:#4aa04d; stroke:none;" d="M244 84L245 85L244 84M251 84L252 85L251 84M262 84L263 85L262 84z"/>
<path style="fill:#636568; stroke:none;" d="M269 84L268 86L269 84z"/>
<path style="fill:#4aa04d; stroke:none;" d="M277 84L277 90L278 90L277 84M424 84L425 85L424 84z"/>
<path style="fill:#636568; stroke:none;" d="M431 84L432 85L431 84z"/>
<path style="fill:#4aa04d; stroke:none;" d="M136 85L137 86L136 85M177 85L176 87L177 85z"/>
<path style="fill:#636568; stroke:none;" d="M184 85L185 86L184 85M251 85L252 86L251 85z"/>
<path style="fill:#4aa04d; stroke:none;" d="M261 85L262 86L261 85M269 85L270 86L269 85M338 85L339 86L338 85M423 85L424 86L423 85z"/>
<path style="fill:#636568; stroke:none;" d="M430 85L428 93L429 93L430 85z"/>
<path style="fill:#4aa04d; stroke:none;" d="M135 86L136 87L135 86M151 86L150 89L151 86z"/>
<path style="fill:#636568; stroke:none;" d="M177 86L178 87L177 86z"/>
<path style="fill:#4aa04d; stroke:none;" d="M184 86L185 87L184 86M206 86L206 89L207 89L206 86M245 86L247 89L245 86z"/>
<path style="fill:#636568; stroke:none;" d="M252 86L253 87L252 86z"/>
<path style="fill:#4aa04d; stroke:none;" d="M260 86L261 87L260 86z"/>
<path style="fill:#636568; stroke:none;" d="M267 86C265.775 90.2746 265.956 93.6374 270 96L270 97L266 97L266 98L283 97L283 96L277 93L278 90L277 90C272.135 99.289 268.173 92.9444 267 86M355 86L355 91L356 91L355 86z"/>
<path style="fill:#4aa04d; stroke:none;" d="M370 86L371 87L370 86M422.333 86.6667L422.667 87.3333L422.333 86.6667M430 86L431 87L430 86z"/>
<path style="fill:#636568; stroke:none;" d="M150 87L151 88L150 87M176 87L177 88L176 87M183 87L184 88L183 87M246 87L247 88L246 87M253 87L256 91L253 87z"/>
<path style="fill:#4aa04d; stroke:none;" d="M267.333 87.6667L267.667 88.3333L267.333 87.6667M331 87L332 88L331 87M429 87L430 88L429 87M134 88L135 89L134 88z"/>
<path style="fill:#636568; stroke:none;" d="M149 88L145 100L146 100L149 88z"/>
<path style="fill:#4aa04d; stroke:none;" d="M175 88L174 90L175 88z"/>
<path style="fill:#636568; stroke:none;" d="M182 88L176 100L177 100L182 88M247 88L261 102L247 88z"/>
<path style="fill:#4aa04d; stroke:none;" d="M254 88L255 89L254 88M259.333 88.6667L259.667 89.3333L259.333 88.6667M371 88L373 91L371 88M379 88L380 89L379 88z"/>
<path style="fill:#636568; stroke:none;" d="M422 88C422.651 96.6281 428.557 97.9193 436 97L436 96L429 93L432 96L432 97C426.388 95.8667 424.514 92.7695 422 88z"/>
<path style="fill:#4aa04d; stroke:none;" d="M133 89L134 90L133 89z"/>
<path style="fill:#636568; stroke:none;" d="M175 89L176 90L175 89z"/>
<path style="fill:#4aa04d; stroke:none;" d="M182 89L183 90L182 89M255 89L256 90L255 89M332 89L333 90L332 89M339 89L340 90L339 89z"/>
<path style="fill:#636568; stroke:none;" d="M372 89L373 90L372 89z"/>
<path style="fill:#4aa04d; stroke:none;" d="M396 90L396 91L400 89L396 90z"/>
<path style="fill:#636568; stroke:none;" d="M174 90L172 111L176 102L175 102L174 105L174 90z"/>
<path style="fill:#4aa04d; stroke:none;" d="M247 90L248 91L247 90M316 90L317 91L316 90z"/>
<path style="fill:#636568; stroke:none;" d="M333 90C338.145 98.1175 345.466 98.1024 354 96L355 91L354 91C350.005 96.3717 346.609 95.8155 341 93L345 96L345 97L333 90M339 90L341 93L339 90M373 90L376 94L373 90z"/>
<path style="fill:#4aa04d; stroke:none;" d="M380 90L381 91L380 90z"/>
<path style="fill:#636568; stroke:none;" d="M132 91L133 92L132 91z"/>
<path style="fill:#4aa04d; stroke:none;" d="M149 91L150 92L149 91M173 91L174 92L173 91M248 91L249 92L248 91z"/>
<path style="fill:#636568; stroke:none;" d="M256 91L257 92L256 91z"/>
<path style="fill:#4aa04d; stroke:none;" d="M267.333 91.6667L267.667 92.3333L267.333 91.6667M276 91L277 92L276 91M323.333 91.6667L323.667 92.3333L323.333 91.6667M333 91L334 92L333 91M381 91L382 92L381 91z"/>
<path style="fill:#636568; stroke:none;" d="M396 91C392.675 94.2101 389.489 94.6277 385 94L385 95L390 96L390 97L384 97L384 98C390.141 97.9451 395.11 96.8743 398 91L396 91M131 92L129 96L131 92z"/>
<path style="fill:#4aa04d; stroke:none;" d="M180 92L181 93L180 92M249 92L250 93L249 92M257 92L260 95L257 92M295 92L296 93L295 92M316 92L317 93L316 92M334 92L335 93L334 92M353 92L354 93L353 92M362 92L363 93L362 92M373 92L374 93L373 92M382 92L383 93L382 92M395 92L396 93L395 92M407 92L408 93L407 92M438 92L432 95L432 96L437 97L438 92M130 93L131 94L130 93M148 93L149 94L148 93M172 93L173 94L172 93M250 93L251 94L250 93z"/>
<path style="fill:#636568; stroke:none;" d="M257 93L258 94L257 93z"/>
<path style="fill:#4aa04d; stroke:none;" d="M260 93L261 94L260 93M275 93L276 94L275 93z"/>
<path style="fill:#636568; stroke:none;" d="M284 93L287 96L284 97L284 98L290 94L284 93z"/>
<path style="fill:#4aa04d; stroke:none;" d="M288.667 93.3333L289.333 93.6667L288.667 93.3333M294 93L295 94L294 93M303 93L304 94L303 93M315 93L316 94L315 93M324 93L325 94L324 93M342 93L343 94L342 93M352 93L353 94L352 93M363 93L364 94L363 93M374 93L375 94L374 93M384.667 93.3333L385.333 93.6667L384.667 93.3333M392.667 93.3333L393.333 93.6667L392.667 93.3333M397 93L398 94L397 93M406 93L407 94L406 93M415 93L416 94L415 93M422 93L423 94L422 93z"/>
<path style="fill:#636568; stroke:none;" d="M437 96L441 94C444.312 98.9927 449.447 98.2623 453 94L447 94L447 95L450 96L437 96z"/>
<path style="fill:#4aa04d; stroke:none;" d="M451.667 93.3333L452.333 93.6667L451.667 93.3333M129 94L130 95L129 94M251 94L252 95L251 94z"/>
<path style="fill:#636568; stroke:none;" d="M258 94L259 95L258 94z"/>
<path style="fill:#4aa04d; stroke:none;" d="M261 94L262 95L261 94M268 94L269 95L268 94M277.667 94.3333L278.333 94.6667L277.667 94.3333M286.667 94.3333L287.333 94.6667L286.667 94.3333M289 97L293 96L291 94L289 97M304 94L305 95L304 94M314 94L315 95L314 94M325 94L326 95L325 94M336 94L337 95L336 94M343 94L344 95L343 94z"/>
<path style="fill:#636568; stroke:none;" d="M355 94L361 98L361 97L355 94z"/>
<path style="fill:#4aa04d; stroke:none;" d="M364 94L365 95L364 94z"/>
<path style="fill:#636568; stroke:none;" d="M376 94L376 95L383 97L383 96L376 94z"/>
<path style="fill:#4aa04d; stroke:none;" d="M387 94L388 95L387 94M389.667 94.3333L390.333 94.6667L389.667 94.3333z"/>
<path style="fill:#111617; stroke:none;" d="M394 94L395 95L394 94z"/>
<path style="fill:#4aa04d; stroke:none;" d="M396 94L397 95L396 94M405 94L406 95L405 94M416 94L417 95L416 94M423 94L424 95L423 94M439.667 94.3333L440.333 94.6667L439.667 94.3333M448.667 94.3333L449.333 94.6667L448.667 94.3333M147.333 95.6667L147.667 96.3333L147.333 95.6667M178 95L179 96L178 95M252 95L253 96L252 95z"/>
<path style="fill:#636568; stroke:none;" d="M259 95L263 100L259 95M262.667 95.3333L263.333 95.6667L262.667 95.3333z"/>
<path style="fill:#4aa04d; stroke:none;" d="M270 95L270 96L274 96L270 95M275 95L276 96L275 95M279 95L280 96L279 95M305 95L306 96L305 95M313 95L314 96L313 95M326.667 95.3333L327.333 95.6667L326.667 95.3333M337 95L338 96L337 95M345.667 95.3333L346.333 95.6667L345.667 95.3333M349.667 95.3333L350.333 95.6667L349.667 95.3333M354 95L355 96L354 95M366.333 95.6667L366.667 96.3333L366.333 95.6667M377 95L378 96L377 95M395 95L396 96L395 95M404 95L405 96L404 95M417 95L418 96L417 95M424 95L425 96L424 95M438 95L439 96L438 95M452 95L453 96L452 95z"/>
<path style="fill:#636568; stroke:none;" d="M128 96L127 99L128 96z"/>
<path style="fill:#4aa04d; stroke:none;" d="M253 96L254 97L253 96M260 96L261 97L260 96z"/>
<path style="fill:#636568; stroke:none;" d="M264 96L265 97L264 96z"/>
<path style="fill:#4aa04d; stroke:none;" d="M280 96L281 97L280 96M306 96L307 97L306 96M312 96L313 97L312 96M339 96L340 97L339 96M352 96L353 97L352 96M355 96L356 97L355 96M379 96L380 97L379 96M393 96L394 97L393 96M403 96L404 97L403 96M418 96L419 97L418 96M425 96L426 97L425 96M442 96L443 97L442 96M127 97L128 98L127 97M177 97L178 98L177 97M254 97L255 98L254 97M261 97L262 98L261 97M264.667 97.3333L265.333 97.6667L264.667 97.3333M270 97L270 98L273 98L270 97M281 97L281 98L284 98L281 97M292 97L292 98L306 98L292 97M313 97L313 98L321 98L313 97M322 97L322 98L327 98L322 97M341.667 97.3333L342.333 97.6667L341.667 97.3333M346 97L346 98L351 98L346 97M356 97L357 98L356 97M361 97L361 98L366 98L361 97M381 97L381 98L384 98L381 97M391 97L392 98L391 97M404 97L404 98L418 98L404 97M427 97L428 98L427 97M432 97L432 98L436 98L432 97M443.667 97.3333L444.333 97.6667L443.667 97.3333M450 97L451 98L450 97M146 98L147 99L146 98M255 98L256 99L255 98M262 98L263 99L262 98z"/>
<path style="fill:#636568; stroke:none;" d="M126 99L127 100L126 99z"/>
<path style="fill:#4aa04d; stroke:none;" d="M256 99L257 100L256 99z"/>
<path style="fill:#636568; stroke:none;" d="M125 100L123 104L125 100M144 100L142 104L143 104L144 100z"/>
<path style="fill:#4aa04d; stroke:none;" d="M176.333 100.667L176.667 101.333L176.333 100.667M258 100L259 101L258 100z"/>
<path style="fill:#636568; stroke:none;" d="M263 100L264 101L263 100z"/>
<path style="fill:#4aa04d; stroke:none;" d="M124 101L125 102L124 101M144 101L145 102L144 101M259 101L260 102L259 101M264 101L266 103L264 101M123 102L124 103L123 102M143 102L144 103L143 102z"/>
<path style="fill:#636568; stroke:none;" d="M261 102L261 103L266 106L265 103L261 102M264 102L265 103L264 102z"/>
<path style="fill:#4aa04d; stroke:none;" d="M261 103L262 104L261 103M122 104L121 106L122 104z"/>
<path style="fill:#636568; stroke:none;" d="M141 104L135 113L141 104z"/>
<path style="fill:#4aa04d; stroke:none;" d="M263 104L264 105L263 104M266 104L266 107L267 107L266 104z"/>
<path style="fill:#636568; stroke:none;" d="M122 105L123 106L122 105z"/>
<path style="fill:#4aa04d; stroke:none;" d="M141 105L142 106L141 105z"/>
<path style="fill:#636568; stroke:none;" d="M121 106L122 107L121 106M120 107L121 108L120 107z"/>
<path style="fill:#4aa04d; stroke:none;" d="M175 107L176 108L175 107z"/>
<path style="fill:#636568; stroke:none;" d="M119 108L117 112L119 108z"/>
<path style="fill:#4aa04d; stroke:none;" d="M139 108L140 109L139 108M174.333 108.667L174.667 109.333L174.333 108.667M118 109L119 110L118 109M138 109L139 110L138 109M117 110L118 111L117 110z"/>
<path style="fill:#636568; stroke:none;" d="M127 114L130 113L127 121L128 121L131 111L127 114z"/>
<path style="fill:#4aa04d; stroke:none;" d="M137 111L138 112L137 111M172 111L172 113L174 113L174 111L172 111M295 112L295 132L302 132L301 124L311 124L310 119C305.815 119.728 303.193 119.963 301 116C303.317 116 315.916 117.381 315.079 113.17C314.192 108.71 298.07 111.093 295 112z"/>
<path style="fill:#30c6e3; stroke:none;" d="M324 111L325 112L324 111z"/>
<path style="fill:#4aa04d; stroke:none;" d="M325.004 111.573C309.593 116.053 319.624 136.403 333.999 132.276C349.592 127.8 339.937 107.231 325.004 111.573z"/>
<path style="fill:#30c6e3; stroke:none;" d="M352 111L353 112L352 111z"/>
<path style="fill:#4aa04d; stroke:none;" d="M353.001 111.533C337.608 115.288 346.241 136.014 360.996 132.606C376.955 128.919 368.182 107.83 353.001 111.533M373 112C373.869 116.682 371.682 127.896 374.117 131.386C375.596 133.506 379.52 132.754 381.715 132.78C385.811 132.829 390.396 132.986 393.427 129.697C398.187 124.532 396.7 114.474 389.995 111.894C387.715 111.017 385.382 111.201 383 111.258C379.488 111.343 376.398 111.021 373 112z"/>
<path style="fill:#30c6e3; stroke:none;" d="M380 111L380 112L383 112L380 111z"/>
<path style="fill:#4aa04d; stroke:none;" d="M413 124L414 128L401 126C396.331 139.859 429.294 131.439 417.682 121.603C413.668 118.204 407.995 120.197 404 116L418 118C422.146 99.7701 382.656 120.489 406.996 124.191C409.109 124.512 410.917 124.331 413 124z"/>
<path style="fill:#636568; stroke:none;" d="M116 112L115 115L116 112z"/>
<path style="fill:#4aa04d; stroke:none;" d="M136 112L137 113L136 112z"/>
<path style="fill:#636568; stroke:none;" d="M305 112L305 114L314 114L314 112L305 112z"/>
<path style="fill:#30c6e3; stroke:none;" d="M349 112L350 113L349 112z"/>
<path style="fill:#636568; stroke:none;" d="M356 112L356 113L364 115L356 112M403 121L408 112C403.97 113.078 398.516 117.015 403 121M411 112L414 114L411 112z"/>
<path style="fill:#4aa04d; stroke:none;" d="M115 113L116 114L115 113M128.667 113.333L129.333 113.667L128.667 113.333M135 113L136 114L135 113z"/>
<path style="fill:#636568; stroke:none;" d="M297.667 113.333L298.333 113.667L297.667 113.333M375 113L376 114L375 113M387 113L387 114L392 116L387 113z"/>
<path style="fill:#30c6e3; stroke:none;" d="M400 113L401 114L400 113z"/>
<path style="fill:#636568; stroke:none;" d="M126 114L125 116L126 114M134 114L135 115L134 114M323 114L324 115L323 114M335 114L337 116L335 114z"/>
<path style="fill:#30c6e3; stroke:none;" d="M373 114L373 129L374 129L373 114z"/>
<path style="fill:#636568; stroke:none;" d="M415 114L418 116L415 114M114 115L115 116L114 115z"/>
<path style="fill:#4aa04d; stroke:none;" d="M126 115L127 116L126 115z"/>
<path style="fill:#636568; stroke:none;" d="M133 115L132 118L133 118L133 115z"/>
<path style="fill:#30c6e3; stroke:none;" d="M328 115L328 116L332 116L328 115M355 115L355 116L359 116L355 115M399 115L400 116L399 115M407 115L407 116L411 116L407 115z"/>
<path style="fill:#636568; stroke:none;" d="M113 116L111 120L113 116M123 116L123 118L125 116L123 116z"/>
<path style="fill:#4aa04d; stroke:none;" d="M128 116L129 117L128 116M133 116L134 117L133 116z"/>
<path style="fill:#30c6e3; stroke:none;" d="M301 116L301 119L302 119L301 116M318 116L319 117L318 116M325 116L324 118L325 116z"/>
<path style="fill:#f5f9f8; stroke:none;" d="M326.228 117.029C319.444 121.128 326.231 130.721 332.887 126.971C340.165 122.872 332.755 113.085 326.228 117.029z"/>
<path style="fill:#30c6e3; stroke:none;" d="M333 116L334 117L333 116z"/>
<path style="fill:#f5f9f8; stroke:none;" d="M353.318 117.028C347.01 121.223 354.093 131.161 360.721 126.972C367.625 122.608 359.879 112.665 353.318 117.028z"/>
<path style="fill:#30c6e3; stroke:none;" d="M379 116L380 117L379 116z"/>
<path style="fill:#f5f9f8; stroke:none;" d="M380 128C381.914 127.993 384.08 128.205 385.946 127.682C399.024 124.014 378.726 107.121 379.109 122C379.161 124.018 379.633 126.023 380 128z"/>
<path style="fill:#30c6e3; stroke:none;" d="M404.333 116.667L404.667 117.333L404.333 116.667M414 116L415 117L414 116z"/>
<path style="fill:#4aa04d; stroke:none;" d="M112 117L113 118L112 117z"/>
<path style="fill:#30c6e3; stroke:none;" d="M225 117L219 133L218 144C206.851 147.654 210.712 135.774 204 130L199 150L180 157C179.983 152.296 180.13 149.119 175 148L168 119C162.205 120.688 159.761 132.752 161 138C156.312 140.876 157.039 144.364 159 149C151.757 150.659 150.932 141.507 150 136L149 136L149 139L148 139L148 135L147 135C145.568 141.045 143.899 156.102 139.415 160.258C134.643 164.68 122.051 163 116 163L108 138L107 138L108 142L107 142L107 140L106 140L99 157L100 161L94.5471 144.575L88 131L77 160L45 150L45 151L48 152L48 153L43 151C54.0538 164.342 78.6272 169.585 95 171.17C136.762 175.211 180.378 168.814 221 158.525C237.387 154.375 261.155 149.043 272 135C257.421 132.834 245.645 144.314 231 138C232.136 131.492 229.425 121.918 225 117z"/>
<path style="fill:#636568; stroke:none;" d="M320.333 117.667L320.667 118.333L320.333 117.667z"/>
<path style="fill:#30c6e3; stroke:none;" d="M334 117L335 118L334 117z"/>
<path style="fill:#636568; stroke:none;" d="M338 117L339 118L338 117z"/>
<path style="fill:#30c6e3; stroke:none;" d="M368 117L369 118L368 117z"/>
<path style="fill:#4aa04d; stroke:none;" d="M111 118L112 119L111 118z"/>
<path style="fill:#636568; stroke:none;" d="M121 118L117 123L121 118z"/>
<path style="fill:#4aa04d; stroke:none;" d="M122 118L123 119L122 118M127 118L128 119L127 118z"/>
<path style="fill:#636568; stroke:none;" d="M131 118L132 119L131 118z"/>
<path style="fill:#30c6e3; stroke:none;" d="M335 118L336 119L335 118M405 118L405 119L408 119L405 118z"/>
<path style="fill:#4aa04d; stroke:none;" d="M121 119L122 120L121 119M131 119L132 120L131 119z"/>
<path style="fill:#30c6e3; stroke:none;" d="M302.667 119.333L303.333 119.667L302.667 119.333M307 119L308 120L307 119M323 119L324 120L323 119M399 119L400 120L399 119M409 119L409 120L413 120L409 119z"/>
<path style="fill:#636568; stroke:none;" d="M110 120L108 124L110 120z"/>
<path style="fill:#4aa04d; stroke:none;" d="M120 120L121 121L120 120z"/>
<path style="fill:#636568; stroke:none;" d="M129 120L128 123L126 122L125 126L129 120z"/>
<path style="fill:#4aa04d; stroke:none;" d="M130 120L131 121L130 120z"/>
<path style="fill:#30c6e3; stroke:none;" d="M336.333 120.667L336.667 121.333L336.333 120.667M342 120L342 124L343 124L342 120M350 120L350 124L351 124L350 120M363 120L364 121L363 120M396 120L396 124L397 124L396 120z"/>
<path style="fill:#4aa04d; stroke:none;" d="M109 121L110 122L109 121M119 121L120 122L119 121M126 121L127 122L126 121z"/>
<path style="fill:#636568; stroke:none;" d="M304 121L304 122L310 123L304 121z"/>
<path style="fill:#30c6e3; stroke:none;" d="M390 121L390 124L391 124L390 121z"/>
<path style="fill:#4aa04d; stroke:none;" d="M108 122L109 123L108 122M118 122L119 123L118 122M125 122L126 123L125 122M129 122L130 123L129 122z"/>
<path style="fill:#30c6e3; stroke:none;" d="M401 122L402 123L401 122z"/>
<path style="fill:#636568; stroke:none;" d="M116 123L107 132L116 123z"/>
<path style="fill:#30c6e3; stroke:none;" d="M336 123L337 124L336 123M363 123L364 124L363 123M402 123L403 124L402 123z"/>
<path style="fill:#636568; stroke:none;" d="M107 124L105 128L107 124z"/>
<path style="fill:#4aa04d; stroke:none;" d="M116 124L117 125L116 124M127 124L128 125L127 124z"/>
<path style="fill:#30c6e3; stroke:none;" d="M301 124L301 127L302 127L303 124L301 124M323 124L324 125L323 124z"/>
<path style="fill:#636568; stroke:none;" d="M339 124L340 125L339 124z"/>
<path style="fill:#30c6e3; stroke:none;" d="M369 124L370 125L369 124M405 124L405 125L409 125L405 124M411.667 124.333L412.333 124.667L411.667 124.333z"/>
<path style="fill:#4aa04d; stroke:none;" d="M106 125L107 126L106 125z"/>
<path style="fill:#30c6e3; stroke:none;" d="M335 125L336 126L335 125M341 125L342 126L341 125M351 125L352 126L351 125M379 125L379 128L380 128L379 125M413 125L414 126L413 125z"/>
<path style="fill:#4aa04d; stroke:none;" d="M105 126L106 127L105 126M113 126L114 127L113 126M123 129L127 126L123 129z"/>
<path style="fill:#30c6e3; stroke:none;" d="M334 126L335 127L334 126M420 126L421 127L420 126M318 127L319 128L318 127M325 127L326 128L325 127M333 127L334 128L333 127M395 127L396 128L395 127z"/>
<path style="fill:#636568; stroke:none;" d="M104 128L102 132L104 128z"/>
<path style="fill:#4aa04d; stroke:none;" d="M111 128L112 129L111 128z"/>
<path style="fill:#30c6e3; stroke:none;" d="M301.333 128.667L301.667 129.333L301.333 128.667M328 128L328 129L331 129L328 128M340 128L341 129L340 128M346 128L347 129L346 128M355 128L355 129L359 129L355 128M367 128L368 129L367 128z"/>
<path style="fill:#636568; stroke:none;" d="M383 130L383 131L392 129L383 130z"/>
<path style="fill:#30c6e3; stroke:none;" d="M394 128L395 129L394 128z"/>
<path style="fill:#636568; stroke:none;" d="M400 129L406 132L400 129z"/>
<path style="fill:#30c6e3; stroke:none;" d="M408 128L409 129L408 128z"/>
<path style="fill:#4aa04d; stroke:none;" d="M103 129L104 130L103 129M110 129L111 130L110 129z"/>
<path style="fill:#636568; stroke:none;" d="M297 131L300 131L299 129L297 131z"/>
<path style="fill:#30c6e3; stroke:none;" d="M339 129L340 130L339 129M419 129L420 130L419 129z"/>
<path style="fill:#4aa04d; stroke:none;" d="M102 130L103 131L102 130M109 130L110 131L109 130z"/>
<path style="fill:#30c6e3; stroke:none;" d="M338 130L339 131L338 130z"/>
<path style="fill:#636568; stroke:none;" d="M352 130L352 131L356 132L352 130z"/>
<path style="fill:#30c6e3; stroke:none;" d="M393 130L394 131L393 130z"/>
<path style="fill:#636568; stroke:none;" d="M408 131L408 132L412 132L408 131z"/>
<path style="fill:#30c6e3; stroke:none;" d="M418 130L419 131L418 130z"/>
<path style="fill:#4aa04d; stroke:none;" d="M108 131L109 132L108 131z"/>
<path style="fill:#30c6e3; stroke:none;" d="M322 131L323 132L322 131z"/>
<path style="fill:#636568; stroke:none;" d="M327 131L327 132L331 132L327 131z"/>
<path style="fill:#30c6e3; stroke:none;" d="M417 131L418 132L417 131z"/>
<path style="fill:#636568; stroke:none;" d="M101 132L95 142L101 139L101 132M106 132L107 133L106 132z"/>
<path style="fill:#30c6e3; stroke:none;" d="M325 132L326 133L325 132M333 132L334 133L333 132M378.667 132.333L379.333 132.667L378.667 132.333M382 132L383 133L382 132M388 132L389 133L388 132M414 132L415 133L414 132z"/>
<path style="fill:#4aa04d; stroke:none;" d="M87 133L87 136L88 136L87 133M100 133L101 134L100 133z"/>
<path style="fill:#636568; stroke:none;" d="M105 133L106 134L105 133z"/>
<path style="fill:#4aa04d; stroke:none;" d="M99 134L100 135L99 134z"/>
<path style="fill:#636568; stroke:none;" d="M103 134L103 136L105 134L103 134z"/>
<path style="fill:#4aa04d; stroke:none;" d="M98 135L99 136L98 135M148 135L148 139L149 139L148 135M270 135L271 136L270 135z"/>
<path style="fill:#636568; stroke:none;" d="M101.667 136.333L102.333 136.667L101.667 136.333z"/>
<path style="fill:#4aa04d; stroke:none;" d="M97 137L98 138L97 137M101 137L102 138L101 137M266.667 137.333L267.333 137.667L266.667 137.333M96 138L97 139L96 138z"/>
<path style="fill:#111617; stroke:none;" d="M97 139L98 140L97 139z"/>
<path style="fill:#4aa04d; stroke:none;" d="M99 139L100 140L99 139M107 139L107 142L108 142L107 139z"/>
<path style="fill:#30c6e3; stroke:none;" d="M94 140L95 141L94 140z"/>
<path style="fill:#4aa04d; stroke:none;" d="M98 140L99 141L98 140M94 141L97 143L97 142L94 141M97 141L98 142L97 141M174.333 141.667L174.667 142.333L174.333 141.667M158.333 142.667L158.667 143.333L158.333 142.667M93 143L94 144L93 143z"/>
<path style="fill:#30c6e3; stroke:none;" d="M247 180L248 180C256.299 174.29 272.098 172.274 282 169.626C302.458 164.155 323.686 157.871 345 157.04C357.704 156.545 370.354 160.457 383 161L383 162C365.496 162.35 347.182 162.466 331 170L331 171L333 170L332 173C362.179 163.413 389.454 169.233 420 169C416.926 158.641 397.049 157.755 388 156L388 155L438 159.664L485 169L485 168L479 166L479 165L487 167C473.654 156.91 450.274 152.838 434 150.718C388.56 144.799 346.434 146.357 302 157.626C288.175 161.132 274.246 165.303 261 170.6C255.784 172.686 248.917 174.195 247 180z"/>
<path style="fill:#4aa04d; stroke:none;" d="M38 147L39 148L38 147z"/>
<path style="fill:#30c6e3; stroke:none;" d="M39.3333 147.667L39.6667 148.333L39.3333 147.667z"/>
<path style="fill:#4aa04d; stroke:none;" d="M40 148L48 153L48 152L40 148z"/>
<path style="fill:#30c6e3; stroke:none;" d="M41 148L42 149L41 148z"/>
<path style="fill:#4aa04d; stroke:none;" d="M479 165L479 166L494 170L494 169L479 165M415 168L418 168L417 166L415 168z"/>
<path style="fill:#30c6e3; stroke:none;" d="M488 167L489 168L488 167M489.667 168.333L490.333 168.667L489.667 168.333z"/>
<path style="fill:#4aa04d; stroke:none;" d="M336.667 169.333L337.333 169.667L336.667 169.333z"/>
<path style="fill:#30c6e3; stroke:none;" d="M487.667 169.333L488.333 169.667L487.667 169.333z"/>
<path style="fill:#4aa04d; stroke:none;" d="M332 170L328 172L328 173L332 170M334 170L335 171L334 170z"/>
<path style="fill:#30c6e3; stroke:none;" d="M328 171L329 172L328 171M327.667 173.333L328.333 173.667L327.667 173.333z"/>
<path style="fill:#4aa04d; stroke:none;" d="M256.667 174.333L257.333 174.667L256.667 174.333M248.333 178.667L248.667 179.333L248.333 178.667z"/>
<path style="fill:#636568; stroke:none;" d="M3 182L3 185L4 185L3 182M571.333 183.667L571.667 184.333L571.333 183.667z"/>
<path style="fill:#4aa04d; stroke:none;" d="M2 184L2 187L3 187L2 184M10 185L11 186L10 185M571 185L570 192L571 192L571 185M2 189C6.3003 195.633 28.4965 192 36 192L140 192L569 192L569 191L160 191L48 191C35.3084 191 13.1948 195.226 2 189z"/>
<path style="fill:#636568; stroke:none;" d="M3 190L4 191L3 190M570 190L571 191L570 190M569 191L570 192L569 191z"/>
</svg>
